<svg xmlns="http://www.w3.org/2000/svg" xmlns:xlink="http://www.w3.org/1999/xlink" width="451.084" height="437.654" viewBox="0 0 451.084 437.654"><defs><linearGradient id="a" x1="0.5" y1="1.05" x2="0.5" y2="-0.05" gradientUnits="objectBoundingBox"><stop offset="0" stop-color="#20b038"/><stop offset="1" stop-color="#67d670"/></linearGradient><filter id="b" x="0.519" y="0.52" width="450.046" height="436.615" filterUnits="userSpaceOnUse"><feOffset dy="5" input="SourceAlpha"/><feGaussianBlur stdDeviation="18.5" result="c"/><feFlood flood-opacity="0.039"/><feComposite operator="in" in2="c"/><feComposite in="SourceGraphic"/></filter><linearGradient id="d" x1="0.5" y1="1" x2="0.5" gradientUnits="objectBoundingBox"><stop offset="0" stop-color="#f9f9f9"/><stop offset="1" stop-color="#fff"/></linearGradient><filter id="e" x="0" y="0" width="451.084" height="437.654" filterUnits="userSpaceOnUse"><feOffset dy="5" input="SourceAlpha"/><feGaussianBlur stdDeviation="18.5" result="f"/><feFlood flood-opacity="0.039"/><feComposite operator="in" in2="f"/><feComposite in="SourceGraphic"/></filter><filter id="g" x="129.466" y="110.003" width="191.21" height="196.082" filterUnits="userSpaceOnUse"><feOffset input="SourceAlpha"/><feGaussianBlur stdDeviation="2.5" result="h"/><feFlood flood-opacity="0.071"/><feComposite operator="in" in2="h"/><feComposite in="SourceGraphic"/></filter></defs><g transform="translate(55.5 50.5)"><g transform="matrix(1, 0, 0, 1, -55.5, -50.5)" filter="url(#b)"><path d="M1085.534,476.136l23.948-83.611a155.633,155.633,0,0,1-22.533-80.664c.037-88.963,75.766-161.34,168.815-161.34,45.16.017,87.546,16.822,119.418,47.319s49.414,71.037,49.4,114.151c-.039,88.962-75.776,161.347-168.814,161.347h-.071a174.861,174.861,0,0,1-80.671-19.639Z" transform="translate(-1029.52 -99.5)" fill="url(#a)"/></g><g transform="matrix(1, 0, 0, 1, -55.5, -50.5)" filter="url(#e)"><path d="M1085.015,476.655l24.024-83.878a156.115,156.115,0,0,1-22.6-80.922c.037-89.247,76-161.855,169.33-161.855,45.3.017,87.815,16.874,119.786,47.469s49.565,71.263,49.547,114.514c-.037,89.248-76,161.863-169.329,161.863h-.07a175.416,175.416,0,0,1-80.919-19.7Zm93.924-51.814,5.139,2.916a145.5,145.5,0,0,0,71.634,18.753h.058c77.572,0,140.708-60.353,140.739-134.536.016-35.948-14.612-69.75-41.183-95.18s-61.909-39.442-99.5-39.455c-77.633,0-140.769,60.347-140.8,134.527a129.891,129.891,0,0,0,21.518,71.6l3.346,5.089L1125.672,438.2Z" transform="translate(-1029.52 -99.5)" fill="url(#d)"/></g><g transform="matrix(1, 0, 0, 1, -55.5, -50.5)" filter="url(#g)"><path d="M1137.279,166.416c-3.247-8-6.663-8.162-9.755-8.3-2.526-.116-5.419-.11-8.309-.11s-7.587,1.2-11.561,6.011-15.173,16.424-15.173,40.062,15.536,46.475,17.7,49.679,29.994,53.263,74.061,72.517c36.624,16,44.076,12.82,52.023,12.018s25.652-11.618,29.263-22.835,3.613-20.833,2.529-22.839-3.973-3.2-8.309-5.607-25.65-14.024-29.623-15.627-6.865-2.4-9.755,2.405-11.2,15.625-13.728,18.828-5.059,3.609-9.393,1.2-18.3-7.476-34.863-23.836c-12.89-12.735-21.591-28.462-24.118-33.271s-.27-7.407,1.9-9.8c1.952-2.152,4.335-5.61,6.5-8.415s2.891-4.805,4.336-8.01.722-6.01-.363-8.415S1141.133,175.916,1137.279,166.416Z" transform="translate(-955.52 -40.5)" fill="#fefefe"/></g></g></svg>